<svg width="40" height="40" viewBox="0 0 40 40" fill="none" xmlns="http://www.w3.org/2000/svg">
<g clip-path="url(#clip0_8_1489)">
<mask id="mask0_8_1489" style="mask-type:luminance" maskUnits="userSpaceOnUse" x="0" y="0" width="40" height="40">
<path d="M40 20C40 8.9543 31.0457 0 20 0C8.9543 0 0 8.9543 0 20C0 31.0457 8.9543 40 20 40C31.0457 40 40 31.0457 40 20Z" fill="white"/>
</mask>
<g mask="url(#mask0_8_1489)">
<path d="M40 0H0V40H40V0Z" fill="#79451D"/>
<path d="M36.1803 8.24431C29.6879 -0.691847 17.1805 -2.67282 8.2443 3.81967C-0.69185 10.3122 -2.67283 22.8196 3.81967 31.7557C10.3122 40.6919 22.8196 42.6729 31.7557 36.1804C40.6919 29.6879 42.6728 17.1805 36.1803 8.24431Z" fill="#FD8D32"/>
<path d="M12.3079 16.8965C14.6022 17.8499 16.819 17.6949 18.9583 16.4314" stroke="black" stroke-width="2.22222" stroke-linecap="round"/>
<path d="M8.11841 12.7341C8.0756 12.122 7.66872 11.6518 7.2096 11.6839C6.75048 11.716 6.413 12.2383 6.4558 12.8504C6.49861 13.4626 6.9055 13.9328 7.36461 13.9007C7.82373 13.8686 8.16122 13.3463 8.11841 12.7341Z" fill="black"/>
<path d="M23.6361 11.6491C23.5933 11.0369 23.1864 10.5667 22.7273 10.5988C22.2682 10.6309 21.9307 11.1532 21.9735 11.7653C22.0163 12.3775 22.4232 12.8477 22.8823 12.8156C23.3414 12.7835 23.6789 12.2612 23.6361 11.6491Z" fill="black"/>
</g>
</g>
<defs>
<clipPath id="clip0_8_1489">
<rect width="40" height="40" fill="white"/>
</clipPath>
</defs>
</svg>
