<svg width="80" height="80" viewBox="0 0 80 80" fill="none" xmlns="http://www.w3.org/2000/svg">
<mask id="mask0_52_2762" style="mask-type:luminance" maskUnits="userSpaceOnUse" x="0" y="0" width="80" height="80">
<path d="M80 40C80 17.9086 62.0914 0 40 0C17.9086 0 0 17.9086 0 40C0 62.0914 17.9086 80 40 80C62.0914 80 80 62.0914 80 40Z" fill="white"/>
</mask>
<g mask="url(#mask0_52_2762)">
<path d="M80 0H0V80H80V0Z" fill="white"/>
<path d="M72.3607 16.4886C59.3757 -1.38372 34.3609 -5.34568 16.4886 7.63932C-1.3837 20.6243 -5.34565 45.6391 7.63934 63.5114C20.6243 81.3837 45.6391 85.3457 63.5114 72.3607C81.3837 59.3757 85.3457 34.3609 72.3607 16.4886Z" fill="#FD8D32"/>
<path d="M24.6157 33.7929C29.2044 35.6997 33.638 35.3897 37.9166 32.8629" stroke="black" stroke-width="2.22222" stroke-linecap="round"/>
<path d="M16.2368 25.4683C16.1512 24.244 15.3374 23.3035 14.4192 23.3677C13.501 23.4319 12.826 24.4765 12.9116 25.7008C12.9972 26.9251 13.811 27.8655 14.7292 27.8013C15.6475 27.7371 16.3224 26.6926 16.2368 25.4683Z" fill="black"/>
<path d="M47.2722 23.2981C47.1866 22.0738 46.3728 21.1333 45.4546 21.1975C44.5364 21.2617 43.8614 22.3063 43.947 23.5306C44.0326 24.7549 44.8464 25.6953 45.7646 25.6311C46.6829 25.5669 47.3578 24.5224 47.2722 23.2981Z" fill="black"/>
</g>
</svg>
