<svg width="20" height="20" viewBox="0 0 20 20" fill="none" xmlns="http://www.w3.org/2000/svg">
<g clip-path="url(#clip0_443_233)">
<path d="M19.749 1.43207L4.32408 16.8528C4.65755 17.0153 5.02331 17.1007 5.39425 17.1026H8.03599C8.25699 17.1021 8.46901 17.1899 8.62481 17.3467L10.0564 18.7775C10.8328 19.5592 11.8888 19.9992 12.9905 20.0001C13.4454 19.9997 13.8971 19.9251 14.328 19.7794C15.8135 19.2924 16.8939 18.0047 17.1155 16.4572L19.9297 3.09025C20.064 2.53328 20.0001 1.94695 19.749 1.43207Z" fill="#BBBBBB"/>
<path d="M16.934 0.064502L3.59951 2.87367C1.32112 3.18669 -0.272141 5.28745 0.0408735 7.56585C0.16451 8.46562 0.578909 9.30035 1.22094 9.94274L2.65176 11.3736C2.80815 11.5299 2.89595 11.742 2.8958 11.9632V14.6049C2.89771 14.9759 2.98313 15.3417 3.14565 15.6751L18.568 0.25025C18.0612 0.00118071 17.4837 -0.0644439 16.934 0.064502Z" fill="#BBBBBB"/>
</g>
<defs>
<clipPath id="clip0_443_233">
<rect width="20" height="20" fill="white"/>
</clipPath>
</defs>
</svg>
